<svg width="46" height="52" viewBox="0 0 46 52" fill="none" xmlns="http://www.w3.org/2000/svg"><mask id="mask0_16_4977" style="mask-type:alpha" maskUnits="userSpaceOnUse" x="11" y="14" width="24" height="24"><rect x="11" y="14" width="24" height="24" fill="#D9D9D9"/></mask><g mask="url(#mask0_16_4977)"><path d="M30.0999 35.9001L26.5999 32.4501C26.0166 32.6334 25.4249 32.7709 24.8249 32.8626C24.2249 32.9543 23.6166 33.0001 22.9999 33.0001C20.7666 33.0001 18.7249 32.4001 16.8749 31.2001C15.0249 30.0001 13.5749 28.4168 12.5249 26.4501C12.4416 26.3001 12.3791 26.1459 12.3374 25.9876C12.2957 25.8293 12.2749 25.6668 12.2749 25.5001C12.2749 25.3334 12.2957 25.1709 12.3374 25.0126C12.3791 24.8543 12.4416 24.7001 12.5249 24.5501C12.8916 23.9001 13.2832 23.2668 13.6999 22.6501C14.1166 22.0334 14.5999 21.4834 15.1499 21.0001L13.0749 18.9001C12.8916 18.7168 12.7999 18.4876 12.7999 18.2126C12.7999 17.9376 12.8999 17.7001 13.0999 17.5001C13.2832 17.3168 13.5166 17.2251 13.7999 17.2251C14.0832 17.2251 14.3166 17.3168 14.4999 17.5001L31.4999 34.5001C31.6832 34.6834 31.7791 34.9126 31.7874 35.1876C31.7957 35.4626 31.6999 35.7001 31.4999 35.9001C31.3166 36.0834 31.0832 36.1751 30.7999 36.1751C30.5166 36.1751 30.2832 36.0834 30.0999 35.9001ZM22.9999 30.0001C23.1832 30.0001 23.3582 29.9918 23.5249 29.9751C23.6916 29.9584 23.8582 29.9251 24.0249 29.8751L18.6249 24.4751C18.5749 24.6418 18.5416 24.8084 18.5249 24.9751C18.5082 25.1418 18.4999 25.3168 18.4999 25.5001C18.4999 26.7501 18.9374 27.8126 19.8124 28.6876C20.6874 29.5626 21.7499 30.0001 22.9999 30.0001ZM22.9999 18.0001C25.2332 18.0001 27.2791 18.6043 29.1374 19.8126C30.9957 21.0209 32.4499 22.6084 33.4999 24.5751C33.5832 24.7084 33.6457 24.8543 33.6874 25.0126C33.7291 25.1709 33.7499 25.3334 33.7499 25.5001C33.7499 25.6668 33.7332 25.8293 33.6999 25.9876C33.6666 26.1459 33.6082 26.2918 33.5249 26.4251C33.2082 27.0418 32.8541 27.6251 32.4624 28.1751C32.0707 28.7251 31.6332 29.2418 31.1499 29.7251C30.9166 29.9584 30.6416 30.0668 30.3249 30.0501C30.0082 30.0334 29.7332 29.9084 29.4999 29.6751L27.4999 27.6751C27.3832 27.5584 27.3082 27.4209 27.2749 27.2626C27.2416 27.1043 27.2499 26.9418 27.2999 26.7751C27.3666 26.5584 27.4166 26.3501 27.4499 26.1501C27.4832 25.9501 27.4999 25.7334 27.4999 25.5001C27.4999 24.2501 27.0624 23.1876 26.1874 22.3126C25.3124 21.4376 24.2499 21.0001 22.9999 21.0001C22.7666 21.0001 22.5499 21.0168 22.3499 21.0501C22.1499 21.0834 21.9416 21.1334 21.7249 21.2001C21.5582 21.2501 21.3916 21.2584 21.2249 21.2251C21.0582 21.1918 20.9166 21.1168 20.7999 21.0001L19.9749 20.1751C19.6582 19.8584 19.5541 19.4918 19.6624 19.0751C19.7707 18.6584 20.0332 18.3918 20.4499 18.2751C20.8666 18.1918 21.2874 18.1251 21.7124 18.0751C22.1374 18.0251 22.5666 18.0001 22.9999 18.0001ZM24.9749 23.6501C25.1582 23.8668 25.3124 24.1043 25.4374 24.3626C25.5624 24.6209 25.6416 24.8918 25.6749 25.1751C25.6916 25.3084 25.6416 25.4001 25.5249 25.4501C25.4082 25.5001 25.2999 25.4751 25.1999 25.3751L23.1499 23.3251C23.0499 23.2251 23.0291 23.1168 23.0874 23.0001C23.1457 22.8834 23.2416 22.8251 23.3749 22.8251C23.6916 22.8584 23.9832 22.9459 24.2499 23.0876C24.5166 23.2293 24.7582 23.4168 24.9749 23.6501Z" fill="#707070"/></g>
</svg>