<svg width="20" height="20" viewBox="0 0 20 20" fill="none" xmlns="http://www.w3.org/2000/svg">
<path d="M3.7513 7.91589H3.33464C2.54896 7.91589 2.15613 7.91589 1.91204 8.15997C1.66797 8.40406 1.66797 8.79689 1.66797 9.58256V16.6659C1.66797 17.4516 1.66797 17.8444 1.91204 18.0885C2.15613 18.3326 2.54896 18.3326 3.33464 18.3326H3.7513C4.53698 18.3326 4.92981 18.3326 5.17389 18.0885C5.41797 17.8444 5.41797 17.4516 5.41797 16.6659V9.58256C5.41797 8.79689 5.41797 8.40406 5.17389 8.15997C4.92981 7.91589 4.53698 7.91589 3.7513 7.91589Z" stroke="#DFDFDF" stroke-width="1.42857"/>
<path d="M5.41797 3.54089C5.41797 4.57643 4.5785 5.41589 3.54297 5.41589C2.50744 5.41589 1.66797 4.57643 1.66797 3.54089C1.66797 2.50536 2.50744 1.66589 3.54297 1.66589C4.5785 1.66589 5.41797 2.50536 5.41797 3.54089Z" stroke="#DFDFDF" stroke-width="1.42857"/>
<path d="M10.273 7.91589H9.58464C8.79897 7.91589 8.40614 7.91589 8.16204 8.15997C7.91797 8.40406 7.91797 8.79689 7.91797 9.58256V16.6659C7.91797 17.4516 7.91797 17.8444 8.16204 18.0885C8.40614 18.3326 8.79897 18.3326 9.58464 18.3326H10.0013C10.787 18.3326 11.1798 18.3326 11.4239 18.0885C11.668 17.8444 11.668 17.4516 11.668 16.6659L11.6681 13.7493C11.6681 12.3686 12.1081 11.2493 13.4079 11.2493C14.0577 11.2493 14.5846 11.809 14.5846 12.4993V16.2493C14.5846 17.035 14.5846 17.4278 14.8287 17.6719C15.0727 17.916 15.4656 17.916 16.2513 17.916H16.6669C17.4524 17.916 17.8451 17.916 18.0892 17.672C18.3333 17.428 18.3334 17.0352 18.3336 16.2497L18.3347 11.6661C18.3347 9.59506 16.365 7.91609 14.4153 7.91609C13.3054 7.91609 12.3152 8.46014 11.6681 9.31089C11.668 8.78581 11.668 8.52331 11.554 8.32839C11.4817 8.20494 11.3789 8.10217 11.2555 8.02995C11.0606 7.91589 10.7981 7.91589 10.273 7.91589Z" stroke="#DFDFDF" stroke-width="1.42857" stroke-linejoin="round"/>
</svg>