<svg width="20" height="20" viewBox="0 0 20 20" fill="none" xmlns="http://www.w3.org/2000/svg">
<path d="M2.08203 9.99772C2.08203 6.26577 2.08203 4.3998 3.2414 3.24042C4.40077 2.08105 6.26675 2.08105 9.9987 2.08105C13.7306 2.08105 15.5966 2.08105 16.756 3.24042C17.9154 4.3998 17.9154 6.26577 17.9154 9.99772C17.9154 13.7296 17.9154 15.5956 16.756 16.7551C15.5966 17.9144 13.7306 17.9144 9.9987 17.9144C6.26675 17.9144 4.40077 17.9144 3.2414 16.7551C2.08203 15.5956 2.08203 13.7296 2.08203 9.99772Z" stroke="#DFDFDF" stroke-width="1.42857" stroke-linejoin="round"/>
<path d="M13.75 10C13.75 12.0711 12.0711 13.75 10 13.75C7.92893 13.75 6.25 12.0711 6.25 10C6.25 7.92893 7.92893 6.25 10 6.25C12.0711 6.25 13.75 7.92893 13.75 10Z" stroke="#DFDFDF" stroke-width="1.42857"/>
<path d="M14.5895 5.41553H14.582" stroke="#DFDFDF" stroke-width="1.42857" stroke-linecap="round" stroke-linejoin="round"/>
</svg>