<svg width="18" height="18" viewBox="0 0 18 18" fill="none" xmlns="http://www.w3.org/2000/svg">
<path d="M2.90857 12.7641L2.0059 7.37937C1.86942 6.56522 1.80118 6.15815 2.0197 5.89133C2.23823 5.62451 2.63986 5.62451 3.44314 5.62451H14.5647C15.368 5.62451 15.7696 5.62451 15.9881 5.89133C16.2066 6.15815 16.1384 6.56522 16.0019 7.37937L15.0992 12.7641C14.8001 14.5488 14.6504 15.4412 14.0396 15.9704C13.4289 16.4995 12.5484 16.4995 10.7876 16.4995H7.22027C5.45938 16.4995 4.57893 16.4995 3.96814 15.9704C3.35736 15.4412 3.20776 14.5488 2.90857 12.7641Z" stroke="white" stroke-width="1.6875"/>
<path d="M13.125 5.62598C13.125 3.3478 11.2782 1.50098 9 1.50098C6.72182 1.50098 4.875 3.3478 4.875 5.62598" stroke="white" stroke-width="1.6875"/>
</svg>